<svg  version="1.1" x="0px" y="0px" viewBox="0 0 64 64" style="enable-background:new 0 0 64 64;"><path d="M61,27h-6v-3c0-0.552-0.447-1-1-1H33v-2h5c0.431,0,0.812-0.275,0.948-0.684l2-6c0.103-0.305,0.051-0.64-0.137-0.901  C40.623,13.154,40.321,13,40,13h-7v-2h6c0.553,0,1-0.448,1-1V3c0-0.552-0.447-1-1-1H25c-0.553,0-1,0.448-1,1v7c0,0.552,0.447,1,1,1  h6v2h-5c-0.431,0-0.812,0.275-0.948,0.684l-2,6c-0.103,0.305-0.051,0.64,0.137,0.901C23.377,20.846,23.679,21,24,21h7v2H10  c-0.553,0-1,0.448-1,1v3H3c-0.553,0-1,0.448-1,1v7c0,0.552,0.447,1,1,1h6v17H3c-0.553,0-1,0.448-1,1v7c0,0.552,0.447,1,1,1h14  c0.553,0,1-0.448,1-1v-2h6v2c0,0.552,0.447,1,1,1h14c0.553,0,1-0.448,1-1v-2h6v2c0,0.552,0.447,1,1,1h14c0.553,0,1-0.448,1-1v-7  c0-0.552-0.447-1-1-1H47c-0.553,0-1,0.448-1,1v3h-6v-3c0-0.552-0.447-1-1-1H25c-0.553,0-1,0.448-1,1v3h-6v-3c0-0.552-0.447-1-1-1h-6  V40h20v2h-6c-0.553,0-1,0.448-1,1v7c0,0.552,0.447,1,1,1h14c0.553,0,1-0.448,1-1v-7c0-0.552-0.447-1-1-1h-6v-3c0-0.552-0.447-1-1-1  H11v-2h6c0.553,0,1-0.448,1-1v-7c0-0.552-0.447-1-1-1h-6v-2h42v2h-6c-0.553,0-1,0.448-1,1v7c0,0.552,0.447,1,1,1h14  c0.553,0,1-0.448,1-1v-7C62,27.448,61.553,27,61,27z M26,4h12v5H26V4z M26.721,15h11.892l-1.333,4H25.388L26.721,15z M48,55h12v5H48  V55z M26,55h12v5H26V55z M16,60H4v-5h12V60z M38,49H26v-5h12V49z M16,34H4v-5h12V34z M60,34H48v-5h12V34z"></path></svg>