<svg viewBox="0 0 100 100"><path d="m49.78125 6a2.0001998 2.0001998 0 0 0 -1.1875.59375l-10 10a2.0001998 2.0001998 0 1 0 2.8125 2.8125l6.59375-6.59375v9.1875c0 7.807027-6.150455 14.160907-12.875 20.5625-3.362273 3.200796-6.820792 6.363375-9.5 9.8125s-4.625 7.287576-4.625 11.625v4a2.0001998 2.0001998 0 1 0 4 0v-4c0-3.132611 1.429208-6.088077 3.8125-9.15625s5.674773-6.149971 9.0625-9.375c6.775455-6.450057 14.125-13.622447 14.125-23.46875v-9.1875l6.59375 6.59375a2.0001998 2.0001998 0 1 0 2.8125-2.8125l-10-10a2.0001998 2.0001998 0 0 0 -1.625-.59375zm27.21875 14c-5.499158 0-10 4.500841-10 10 0 5.499158 4.500842 10 10 10s10-4.500842 10-10c0-5.499159-4.500842-10-10-10zm-61.21875.96875a2.0001998 2.0001998 0 0 0 -1.1875 3.4375l5.59375 5.59375-5.59375 5.59375a2.0001998 2.0001998 0 1 0 2.8125 2.8125l5.59375-5.59375 5.59375 5.59375a2.0001998 2.0001998 0 1 0 2.8125-2.8125l-5.59375-5.59375 5.59375-5.59375a2.0001998 2.0001998 0 0 0 -1.4375-3.4375 2.0001998 2.0001998 0 0 0 -1.375.625l-5.59375 5.59375-5.59375-5.59375a2.0001998 2.0001998 0 0 0 -1.4375-.625 2.0001998 2.0001998 0 0 0 -.1875 0zm61.21875 3.03125c3.337398 0 6 2.662601 6 6 0 3.337398-2.662602 6-6 6s-6-2.662602-6-6c0-3.337399 2.662602-6 6-6zm-27 23c-5.499158 0-10 4.500841-10 10 0 5.499158 4.500842 10 10 10s10-4.500842 10-10c0-5.499159-4.500842-10-10-10zm0 4c3.337398 0 6 2.662601 6 6 0 3.337398-2.662602 6-6 6s-6-2.662602-6-6c0-3.337399 2.662602-6 6-6zm-27 23c-5.499158 0-10 4.500842-10 10 0 5.499159 4.500842 10 10 10s10-4.500841 10-10c0-5.499158-4.500842-10-10-10zm46.78125.96875a2.0001998 2.0001998 0 0 0 -1.1875 3.4375l5.59375 5.59375-5.59375 5.59375a2.0001998 2.0001998 0 1 0 2.8125 2.8125l5.59375-5.59375 5.59375 5.59375a2.0001998 2.0001998 0 1 0 2.8125-2.8125l-5.59375-5.59375 5.59375-5.59375a2.0001998 2.0001998 0 0 0 -1.4375-3.4375 2.0001998 2.0001998 0 0 0 -1.375.625l-5.59375 5.59375-5.59375-5.59375a2.0001998 2.0001998 0 0 0 -1.4375-.625 2.0001998 2.0001998 0 0 0 -.1875 0zm-46.78125 3.03125c3.337398 0 6 2.662602 6 6 0 3.337399-2.662602 6-6 6s-6-2.662601-6-6c0-3.337398 2.662602-6 6-6z"/></svg>